<svg height="512pt" viewBox="0 0 512 512" width="512pt" xmlns="http://www.w3.org/2000/svg"><g fill-rule="evenodd"><path d="m398.761719 116.929688c0-16.566407-13.433594-30-30-30-12.539063 0-23.285157 7.695312-27.765625 18.621093-1.441406 3.507813-2.234375 7.351563-2.234375 11.378907 0 16.566406 13.429687 30 30 30 16.566406 0 30-13.429688 30-30zm0 0" fill="#fff"/><path d="m340.996094 105.546875c4.480468-10.921875 15.226562-18.617187 27.765625-18.617187 16.566406 0 30 13.433593 30 30 0 16.570312-13.433594 30-30 30-16.570313 0-30-13.429688-30-30 0-4.027344.792969-7.871094 2.234375-11.382813zm-81.625 56.234375c48.96875.664062 93.148437 15.6875 125.027344 39.570312 7.648437-11.210937 20.523437-18.570312 35.117187-18.570312 23.464844 0 42.484375 19.019531 42.484375 42.484375 0 19.226563-12.773438 35.464844-30.292969 40.703125 2.558594 8.851562 3.90625 18.035156 3.90625 27.445312 0 72.710938-80.414062 131.65625-179.613281 131.65625s-179.613281-58.945312-179.613281-131.65625c0-9.410156 1.347656-18.59375 3.90625-27.445312-17.519531-5.238281-30.292969-21.476562-30.292969-40.703125 0-23.464844 19.019531-42.484375 42.484375-42.484375 14.59375 0 27.46875 7.359375 35.117187 18.570312 32.605469-24.429687 78.085938-39.589843 128.398438-39.589843 1.125 0 2.25.007812 3.371094.019531zm242.628906 94.21875c0-135.863281-110.136719-246-246-246s-246 110.136719-246 246 110.136719 246 246 246 246-110.136719 246-246zm0 0" fill="#ff3f18"/><path d="m127.601562 201.355469c-7.648437-11.210938-20.523437-18.574219-35.117187-18.574219-23.464844 0-42.484375 19.019531-42.484375 42.484375 0 19.226563 12.773438 35.464844 30.292969 40.703125 7.191406-24.851562 23.945312-47.113281 47.308593-64.613281zm0 0" fill="#fff"/><path d="m256 161.761719c-50.3125 0-95.789062 15.160156-128.398438 39.59375-23.363281 17.503906-40.117187 39.765625-47.308593 64.617187-2.558594 8.851563-3.90625 18.03125-3.90625 27.441406 0 72.710938 80.414062 131.65625 179.613281 131.65625s179.613281-58.945312 179.613281-131.65625c0-9.410156-1.347656-18.589843-3.90625-27.441406-7.191406-24.855468-23.945312-47.113281-47.308593-64.617187-31.878907-23.886719-76.058594-38.910157-125.027344-39.570313-1.121094-.015625-2.246094-.023437-3.371094-.023437zm-69.257812 75.894531c12.832031 0 23.234374 10.402344 23.234374 23.234375 0 12.828125-10.402343 23.230469-23.234374 23.230469-12.832032 0-23.230469-10.402344-23.230469-23.230469 0-12.832031 10.398437-23.234375 23.230469-23.234375zm115.28125 23.234375c0-12.832031 10.402343-23.234375 23.234374-23.234375 12.832032 0 23.230469 10.402344 23.230469 23.234375 0 12.828125-10.398437 23.230469-23.230469 23.230469-12.832031 0-23.234374-10.402344-23.234374-23.230469zm0 0" fill="#fff"/><path d="m348.488281 260.890625c0 12.828125-10.398437 23.230469-23.230469 23.230469-12.832031 0-23.234374-10.402344-23.234374-23.230469 0-12.832031 10.402343-23.234375 23.234374-23.234375 12.832032 0 23.230469 10.402344 23.230469 23.234375zm0 0" fill="#ff3f18"/><path d="m209.976562 260.890625c0 12.828125-10.402343 23.230469-23.234374 23.230469-12.832032 0-23.230469-10.402344-23.230469-23.230469 0-12.832031 10.398437-23.234375 23.230469-23.234375 12.832031 0 23.234374 10.402344 23.234374 23.234375zm0 0" fill="#ff3f18"/><path d="m384.398438 201.355469c23.363281 17.503906 40.117187 39.765625 47.308593 64.617187 17.519531-5.242187 30.292969-21.480468 30.292969-40.707031 0-23.460937-19.019531-42.484375-42.484375-42.484375-14.59375 0-27.46875 7.363281-35.117187 18.574219zm0 0" fill="#fff"/></g><path d="m472 225.265625c0-28.941406-23.542969-52.484375-52.480469-52.484375-13.992187 0-27.226562 5.570312-36.96875 15.242188-29.964843-20.105469-68.519531-33.195313-110.992187-35.785157l4.476562-21.617187c1.652344-7.988282 6.894532-15.09375 14.382813-19.492188 7.746093-4.550781 16.863281-5.691406 25.015625-3.125l13.609375 4.273438c-.179688 1.527344-.28125 3.078125-.28125 4.652344 0 22.058593 17.945312 40 40 40 22.054687 0 40-17.941407 40-40 0-22.054688-17.945313-40-40-40-13.351563 0-25.1875 6.582031-32.457031 16.664062l-14.875-4.671875c-13.539063-4.253906-28.535157-2.441406-41.140626 4.964844-12.355468 7.257812-21.042968 19.167969-23.839843 32.679687l-5.222657 25.242188c-46.71875.867187-89.289062 14.421875-121.777343 36.214844-9.742188-9.667969-22.976563-15.242188-36.964844-15.242188-28.941406 0-52.484375 23.542969-52.484375 52.484375 0 19.785156 11.371094 37.828125 28.558594 46.695313-1.429688 7-2.171875 14.164062-2.171875 21.453124 0 78.109376 85.058593 141.65625 189.613281 141.65625s189.613281-63.546874 189.613281-141.65625c0-7.289062-.742187-14.453124-2.171875-21.453124 17.1875-8.871094 28.558594-26.914063 28.558594-46.695313zm-103.238281-128.335937c11.027343 0 20 8.972656 20 20 0 11.027343-8.972657 20-20 20-11.03125 0-20-8.972657-20-20 0-11.027344 8.96875-20 20-20zm50.753906 95.851562c17.914063 0 32.484375 14.574219 32.484375 32.484375 0 10.996094-5.6875 21.109375-14.539062 27.035156-7.902344-19.421875-21.242188-37.085937-38.695313-52.003906 5.765625-4.792969 13.074219-7.515625 20.75-7.515625zm-359.515625 32.484375c0-17.910156 14.570312-32.484375 32.480469-32.484375 7.679687 0 14.988281 2.722656 20.753906 7.515625-17.453125 14.917969-30.792969 32.582031-38.695313 52.003906-8.855468-5.925781-14.539062-16.039062-14.539062-27.035156zm316.992188 153.101563c-32.285157 23.667968-75.257813 36.703124-120.992188 36.703124s-88.703125-13.035156-120.992188-36.703124c-31.355468-22.980469-48.621093-53.148438-48.621093-84.953126 0-31.800781 17.269531-61.972656 48.621093-84.953124 32.289063-23.667969 75.257813-36.699219 120.992188-36.699219s88.707031 13.03125 120.992188 36.699219c31.355468 22.980468 48.621093 53.152343 48.621093 84.953124 0 31.804688-17.265625 61.972657-48.621093 84.953126zm0 0"/><path d="m219.976562 260.890625c0-18.328125-14.910156-33.234375-33.234374-33.234375-18.324219 0-33.230469 14.90625-33.230469 33.234375 0 18.324219 14.90625 33.230469 33.230469 33.230469 18.324218 0 33.234374-14.90625 33.234374-33.230469zm-46.464843 0c0-7.296875 5.933593-13.234375 13.230469-13.234375 7.296874 0 13.234374 5.9375 13.234374 13.234375 0 7.292969-5.9375 13.230469-13.234374 13.230469-7.296876 0-13.230469-5.9375-13.230469-13.230469zm0 0"/><path d="m325.257812 227.65625c-18.324218 0-33.234374 14.90625-33.234374 33.234375 0 18.324219 14.910156 33.230469 33.234374 33.230469 18.324219 0 33.230469-14.90625 33.230469-33.230469 0-18.328125-14.90625-33.234375-33.230469-33.234375zm0 46.464844c-7.296874 0-13.234374-5.9375-13.234374-13.230469 0-7.296875 5.9375-13.234375 13.234374-13.234375 7.296876 0 13.230469 5.9375 13.230469 13.234375 0 7.292969-5.933593 13.230469-13.230469 13.230469zm0 0"/><path d="m323.632812 318.742188c-18.066406 18.066406-42.085937 28.015624-67.632812 28.015624-25.550781 0-49.566406-9.949218-67.632812-28.015624-3.90625-3.90625-10.238282-3.90625-14.144532 0s-3.90625 10.238281 0 14.140624c21.84375 21.84375 50.886719 33.875 81.773438 33.875 30.894531 0 59.933594-12.03125 81.777344-33.875 3.90625-3.902343 3.90625-10.234374 0-14.140624-3.902344-3.902344-10.234376-3.90625-14.140626 0zm0 0"/><path d="m393.519531 447.800781c-40.246093 28.914063-87.800781 44.199219-137.519531 44.199219-130.128906 0-236-105.867188-236-236 0-49.71875 15.28125-97.269531 44.195312-137.519531 3.222657-4.484375 2.199219-10.730469-2.285156-13.953125s-10.734375-2.199219-13.957031 2.285156c-31.371094 43.667969-47.953125 95.257812-47.953125 149.1875 0 68.378906 26.628906 132.667969 74.980469 181.019531 48.351562 48.351563 112.640625 74.980469 181.019531 74.980469 53.933594 0 105.519531-16.582031 149.1875-47.957031 4.488281-3.222657 5.511719-9.46875 2.289062-13.953125-3.222656-4.488282-9.46875-5.511719-13.957031-2.289063zm0 0"/><path d="m437.019531 74.980469c-48.351562-48.351563-112.640625-74.980469-181.019531-74.980469-53.925781 0-105.515625 16.582031-149.191406 47.957031-4.484375 3.222657-5.507813 9.472657-2.285156 13.957031 3.222656 4.484376 9.46875 5.511719 13.953124 2.289063 40.253907-28.917969 87.808594-44.203125 137.523438-44.203125 130.132812 0 236 105.871094 236 236 0 49.714844-15.285156 97.265625-44.199219 137.519531-3.222656 4.484375-2.195312 10.734375 2.289063 13.957031 1.765625 1.269532 3.804687 1.878907 5.824218 1.878907 3.109376 0 6.175782-1.449219 8.132813-4.167969 31.371094-43.671875 47.953125-95.261719 47.953125-149.1875 0-68.378906-26.628906-132.667969-74.980469-181.019531zm0 0"/><path d="m82.046875 92.054688c2.71875 0 5.429687-1.105469 7.402344-3.277344 3.714843-4.085938 3.414062-10.410156-.671875-14.125-4.085938-3.714844-10.410156-3.414063-14.125.671875l-.003906.003906c-3.714844 4.085937-3.414063 10.410156.671874 14.125 1.917969 1.742187 4.324219 2.601563 6.726563 2.601563zm0 0"/><path d="m422.550781 423.21875-.003906.003906c-3.714844 4.085938-3.410156 10.410156.675781 14.125 1.914063 1.742188 4.320313 2.597656 6.722656 2.597656 2.71875 0 5.433594-1.101562 7.40625-3.273437 3.714844-4.085937 3.414063-10.410156-.675781-14.125-4.085937-3.714844-10.410156-3.414063-14.125.671875zm0 0"/></svg>