<svg width="42" height="42" viewBox="0 0 42 42" fill="none" xmlns="http://www.w3.org/2000/svg">
<path d="M22.6617 0.478088C12.1549 0.478088 3.60709 9.02583 3.60709 19.5326C3.60709 23.5813 4.87731 27.3385 7.0389 30.4284L0.625293 36.842C0.222025 37.2454 0 37.7814 0 38.3517C0 38.9221 0.222142 39.4583 0.625293 39.8613L2.09767 41.3339C2.51391 41.7501 3.06056 41.9583 3.60733 41.9581C4.15398 41.9581 4.70086 41.75 5.1171 41.3339L11.4914 34.9596C14.6322 37.24 18.4923 38.5871 22.6617 38.5871C33.1684 38.5871 41.7161 30.0394 41.7161 19.5325C41.7161 9.02571 33.1684 0.478088 22.6617 0.478088ZM3.87773 40.0943C3.72874 40.2433 3.48615 40.2432 3.33727 40.0944L1.86478 38.6217C1.76744 38.5245 1.75295 38.4108 1.75295 38.3516C1.75295 38.2924 1.76755 38.1787 1.8649 38.0813L8.11806 31.8283C8.73214 32.5535 9.39903 33.2324 10.1133 33.8588L3.87773 40.0943ZM22.6617 36.8343C13.1215 36.8343 5.35992 29.0727 5.35992 19.5325C5.35992 9.99234 13.1213 2.2308 22.6617 2.2308C32.2018 2.2308 39.9633 9.99234 39.9633 19.5325C39.9633 29.0727 32.2018 36.8343 22.6617 36.8343Z" fill="#8ECCCC"/>
<path d="M22.6616 5.65128C15.0075 5.65128 8.7804 11.8784 8.7804 19.5325C8.7804 19.7522 8.786 19.9796 8.79699 20.2087C8.82013 20.692 9.23029 21.0637 9.71442 21.042C10.198 21.0187 10.5711 20.608 10.5477 20.1244C10.538 19.9233 10.5331 19.7242 10.5331 19.5325C10.5331 12.8449 15.9739 7.40411 22.6615 7.40411C29.3491 7.40411 34.7899 12.8449 34.7899 19.5325C34.7899 26.2202 29.3491 31.661 22.6615 31.661C17.5167 31.661 12.9165 28.4007 11.2144 23.5479C11.0542 23.0911 10.5543 22.8506 10.0972 23.011C9.64045 23.1712 9.40008 23.6713 9.56029 24.1281C11.5084 29.6821 16.7734 33.4138 22.6614 33.4138C30.3155 33.4138 36.5426 27.1867 36.5426 19.5325C36.5426 11.8784 30.3158 5.65128 22.6616 5.65128Z" fill="#8ECCCC"/>
</svg>
